<svg width="398" height="361" viewBox="0 0 398 361" fill="none" xmlns="http://www.w3.org/2000/svg">
<path d="M130.185 340.189C60.8526 340.189 4.64597 283.903 4.64598 214.471C4.64598 145.038 60.8526 88.7529 130.185 88.7529C199.518 88.7529 255.725 145.038 255.725 214.471C255.725 283.903 199.518 340.189 130.185 340.189Z" stroke="#6246E5"/>
<path d="M143.453 345.171C65.8767 345.171 2.98766 282.194 2.98766 204.506C2.98767 126.818 65.8767 63.8413 143.453 63.8413C221.029 63.8413 283.918 126.818 283.918 204.506C283.918 282.194 221.029 345.171 143.453 345.171Z" stroke="#6246E5"/>
<path d="M154.232 350.153C69.329 350.153 0.499928 281.228 0.499932 196.202C0.499936 111.177 69.329 42.2517 154.232 42.2517C239.136 42.2517 307.965 111.177 307.965 196.202C307.965 281.228 239.136 350.153 154.232 350.153Z" stroke="#6246E5"/>
<path d="M169.988 353.475C78.6729 353.475 4.64638 279.345 4.64639 187.899C4.64639 96.453 78.6729 22.3227 169.988 22.3227C261.303 22.3228 335.329 96.453 335.329 187.899C335.329 279.345 261.303 353.475 169.988 353.475Z" stroke="#6246E5"/>
<path d="M185.328 356.796C87.8306 356.796 8.79222 277.647 8.79223 180.01C8.79223 82.3731 87.8306 3.22386 185.328 3.22387C282.825 3.22387 361.864 82.3731 361.864 180.01C361.864 277.647 282.825 356.796 185.328 356.796Z" stroke="#6246E5"/>
<path d="M202.741 360.948C95.6268 360.948 8.79222 273.992 8.79223 166.724C8.79223 59.4564 95.6268 -27.5 202.741 -27.5C309.856 -27.5 396.69 59.4565 396.69 166.724C396.69 273.992 309.856 360.948 202.741 360.948Z" stroke="#6246E5"/>
</svg>
